<svg width="1200" height="840" viewBox="0 0 1200 840" fill="none" xmlns="http://www.w3.org/2000/svg">
  <rect width="1200" height="840" rx="42" fill="#F8FAFC"/>
  <circle cx="190" cy="160" r="220" fill="#DCFCE7"/>
  <circle cx="1010" cy="680" r="250" fill="#FEF3C7"/>
  <rect x="110" y="120" width="980" height="600" rx="38" fill="white" stroke="#D8E2F0" stroke-width="4"/>
  <rect x="165" y="190" width="330" height="360" rx="34" fill="#DCFCE7" stroke="#16A34A" stroke-width="7"/>
  <text x="330" y="392" text-anchor="middle" font-family="Arial, sans-serif" font-size="150" font-weight="900" fill="#16A34A">W</text>
  <rect x="560" y="190" width="410" height="84" rx="26" fill="#F8FAFC" stroke="#CBD5E1" stroke-width="3"/>
  <rect x="560" y="316" width="520" height="50" rx="25" fill="#E5E7EB"/>
  <rect x="560" y="402" width="430" height="50" rx="25" fill="#E5E7EB"/>
  <rect x="560" y="488" width="480" height="50" rx="25" fill="#E5E7EB"/>
  <rect x="560" y="316" width="310" height="50" rx="25" fill="#16A34A"/>
  <rect x="560" y="402" width="220" height="50" rx="25" fill="#FACC15"/>
  <rect x="560" y="488" width="365" height="50" rx="25" fill="#16A34A" opacity="0.75"/>
  <text x="765" y="245" text-anchor="middle" font-family="Arial, sans-serif" font-size="34" font-weight="900" fill="#0F172A">Ingredient Workflow</text>
  <text x="600" y="625" font-family="Arial, sans-serif" font-size="34" font-weight="900" fill="#0F172A">Count / Waste / Expiry / Summary</text>
</svg>