<svg width="1200" height="840" viewBox="0 0 1200 840" fill="none" xmlns="http://www.w3.org/2000/svg">
  <rect width="1200" height="840" rx="42" fill="#F8FBFF"/>
  <circle cx="180" cy="140" r="210" fill="#DBEAFE"/>
  <circle cx="1030" cy="715" r="260" fill="#FEF3C7"/>
  <rect x="94" y="120" width="1012" height="600" rx="34" fill="white" stroke="#D7E3F4" stroke-width="3"/>
  <rect x="140" y="170" width="500" height="360" rx="26" fill="#F9FAFB" stroke="#CBD5E1" stroke-width="3"/>
  <rect x="178" y="218" width="150" height="250" rx="18" fill="#E0F2FE" stroke="#1D4ED8" stroke-width="6"/>
  <rect x="198" y="254" width="110" height="20" rx="10" fill="#2563EB"/>
  <rect x="198" y="300" width="110" height="20" rx="10" fill="#93C5FD"/>
  <rect x="198" y="346" width="110" height="20" rx="10" fill="#93C5FD"/>
  <rect x="198" y="392" width="78" height="20" rx="10" fill="#FACC15"/>
  <path d="M372 250H580M372 310H548M372 370H580M372 430H510" stroke="#94A3B8" stroke-width="18" stroke-linecap="round"/>
  <rect x="720" y="180" width="250" height="390" rx="32" fill="#F8FAFC" stroke="#0F172A" stroke-width="8"/>
  <rect x="790" y="205" width="110" height="18" rx="9" fill="#334155"/>
  <path d="M785 330V280H935V430H785V380" stroke="#16A34A" stroke-width="10" stroke-linecap="round"/>
  <path d="M815 316H905M815 352H905M815 388H875" stroke="#0F172A" stroke-width="16" stroke-linecap="round"/>
  <rect x="700" y="522" width="290" height="70" rx="22" fill="#DBEAFE" stroke="#93C5FD" stroke-width="3"/>
  <text x="845" y="567" text-anchor="middle" font-family="Arial, sans-serif" font-size="30" font-weight="800" fill="#1D4ED8">BARCODE SCAN</text>
  <rect x="394" y="555" width="250" height="110" rx="28" fill="#EFF6FF" stroke="#BFDBFE" stroke-width="3"/>
  <path d="M440 622H600" stroke="#2563EB" stroke-width="18" stroke-linecap="round"/>
  <path d="M440 585H550" stroke="#FACC15" stroke-width="18" stroke-linecap="round"/>
  <path d="M440 652H520" stroke="#22C55E" stroke-width="18" stroke-linecap="round"/>
  <circle cx="1022" cy="178" r="58" fill="#2563EB"/>
  <path d="M994 178L1014 198L1052 154" stroke="white" stroke-width="14" stroke-linecap="round" stroke-linejoin="round"/>
  <text x="150" y="660" font-family="Arial, sans-serif" font-size="38" font-weight="900" fill="#0F172A">Excel Base + Barcode + Stock Diff</text>
</svg>
